<?xml version="1.0" ?>
<!DOCTYPE svg PUBLIC '-//W3C//DTD SVG 1.1//EN' 'http://www.w3.org/Graphics/SVG/1.1/DTD/svg11.dtd'><svg height="100%"
    style="fill-rule:evenodd;clip-rule:evenodd;stroke-linejoin:round;stroke-miterlimit:2;" version="1.1"
    viewBox="0 0 24 24" width="100%" xml:space="preserve" xmlns="http://www.w3.org/2000/svg"
    xmlns:serif="http://www.serif.com/" xmlns:xlink="http://www.w3.org/1999/xlink">
    <g id="Icon">
        <path
            d="M17.75,19.599l0,-4.099c-0,-0.414 0.336,-0.75 0.75,-0.75c0.414,-0 0.75,0.336 0.75,0.75l0,5.5c-0,0.277 -0.152,0.531 -0.396,0.661c-0.244,0.131 -0.54,0.116 -0.77,-0.037c-0,0 -2.026,-1.351 -2.748,-1.832c-0.041,-0.027 -0.089,-0.042 -0.139,-0.042c-1.376,0 -7.105,0 -10.197,-0c-1.519,0 -2.75,-1.231 -2.75,-2.75c0,-2.22 0,-5.78 0,-8c0,-1.519 1.231,-2.75 2.75,-2.75c1.392,0 3,0 3,0c0.414,0 0.75,0.336 0.75,0.75c-0,0.414 -0.336,0.75 -0.75,0.75c-0,0 -1.608,0 -3,-0c-0.69,-0 -1.25,0.56 -1.25,1.25c0,2.22 0,5.78 0,8c0,0.69 0.56,1.25 1.25,1.25c3.092,0 8.821,0 10.197,-0c0.346,0 0.683,0.102 0.971,0.294l1.582,1.055Z" />
        <path
            d="M15.75,2.25c-3.311,-0 -6,2.689 -6,6c0,1.086 0.289,2.105 0.798,2.981c0.034,0.057 0.045,0.117 0.035,0.175c-0.089,0.513 -0.239,1.383 -0.239,1.383c-0.041,0.239 0.036,0.484 0.207,0.656c0.171,0.172 0.415,0.251 0.655,0.212c-0,-0 0.882,-0.146 1.397,-0.226c0.064,-0.011 0.122,0 0.171,0.029c0.003,0.002 0.006,0.003 0.008,0.005c0.876,0.499 1.889,0.785 2.968,0.785c3.311,0 6,-2.689 6,-6c0,-3.311 -2.689,-6 -6,-6Zm-3.749,9.757l0.364,-0.057c0.403,-0.067 0.817,0.01 1.161,0.212c0.656,0.374 1.415,0.588 2.224,0.588c2.484,0 4.5,-2.016 4.5,-4.5c0,-2.484 -2.016,-4.5 -4.5,-4.5c-2.484,-0 -4.5,2.016 -4.5,4.5c0,0.811 0.215,1.573 0.592,2.223c0.212,0.357 0.289,0.778 0.219,1.188l-0.06,0.346Z" />
        <circle cx="13.667" cy="8.333" r="0.667" />
        <circle cx="15.833" cy="8.333" r="0.667" />
        <circle cx="18" cy="8.333" r="0.667" />
    </g>
</svg>